<svg xmlns="http://www.w3.org/2000/svg" width="40" height="42" viewBox="0 0 40 42"><path fill="#ffe600" d="M14.75 5.5a5.47 5.47 0 1 1 10.94 0 5.47 5.47 0 0 1-10.94 0s0 3.02 0 0zm11.61 4.81a5.46 5.46 0 1 1 10.93-.01 5.46 5.46 0 0 1-10.93.01s0 3.02 0 0zm7.54 11.6a2.74 2.74 0 1 1 2.73 2.74 2.74 2.74 0 0 1-2.73-2.74s0 1.51 0 0zm-4.81 11.61a2.74 2.74 0 1 1 0 0s0 1.51 0 0zm-11.6 4.8a2.74 2.74 0 1 1 2.73 2.74 2.74 2.74 0 0 1-2.73-2.74s0 1.51 0 0zm-11.61-4.8a2.74 2.74 0 1 1 0 0s0 1.51 0 0zM4.51 10.31a4.1 4.1 0 1 1 8.2 0 4.1 4.1 0 0 1-8.2 0s0 2.27 0 0zM.73 21.91a3.08 3.08 0 1 0 6.16 0 3.08 3.08 0 0 0-6.16 0c0 1.7 0 0 0 0z"/></svg>